<svg xmlns="http://www.w3.org/2000/svg" xmlns:svg="http://www.w3.org/2000/svg" xmlns:xlink="http://www.w3.org/1999/xlink" id="svg3120" width="100" height="100" version="1.1"><defs id="defs3122"><linearGradient id="linearGradient3972"><stop style="stop-color:#5c5c5c;stop-opacity:1" id="stop3974" offset="0"/><stop style="stop-color:#5c5c5c;stop-opacity:0" id="stop3976" offset="1"/></linearGradient><linearGradient id="linearGradient3964"><stop style="stop-color:#5c5c5c;stop-opacity:1" id="stop3966" offset="0"/><stop style="stop-color:#5c5c5c;stop-opacity:0" id="stop3968" offset="1"/></linearGradient><linearGradient id="linearGradient3956"><stop style="stop-color:#5c5c5c;stop-opacity:1" id="stop3958" offset="0"/><stop style="stop-color:#fff;stop-opacity:0" id="stop3960" offset="1"/></linearGradient><linearGradient id="linearGradient3948"><stop style="stop-color:#ffe48b;stop-opacity:1" id="stop3950" offset="0"/><stop style="stop-color:#da842b;stop-opacity:1" id="stop3952" offset="1"/></linearGradient><linearGradient id="linearGradient3911"><stop style="stop-color:#980000;stop-opacity:1" id="stop3913" offset="0"/><stop style="stop-color:#ff3c3c;stop-opacity:1" id="stop3915" offset="1"/></linearGradient><linearGradient id="linearGradient4773"><stop id="stop4775" offset="0" style="stop-color:#fff;stop-opacity:.45652175"/><stop id="stop4777" offset="1" style="stop-color:#fff;stop-opacity:0"/></linearGradient><linearGradient id="linearGradient4754"><stop style="stop-color:#f9c559;stop-opacity:1" id="stop4756" offset="0"/><stop style="stop-color:#f98759;stop-opacity:1" id="stop4758" offset="1"/></linearGradient><linearGradient id="linearGradient4699"><stop id="stop4701" offset="0" style="stop-color:#fff;stop-opacity:1"/><stop id="stop4703" offset="1" style="stop-color:#c4c4c4;stop-opacity:1"/></linearGradient><linearGradient id="linearGradient4637"><stop id="stop4639" offset="0" style="stop-color:red;stop-opacity:0"/><stop id="stop4641" offset="1" style="stop-color:#fff;stop-opacity:.77536231"/></linearGradient><linearGradient id="linearGradient4407"><stop id="stop4409" offset="0" style="stop-color:#cbcbcb;stop-opacity:1"/><stop id="stop4411" offset="1" style="stop-color:#e3e3e3;stop-opacity:0"/></linearGradient><linearGradient id="linearGradient4327"><stop style="stop-color:#004a94;stop-opacity:1" id="stop4329" offset="0"/><stop style="stop-color:#004a94;stop-opacity:0" id="stop4332" offset="1"/></linearGradient><linearGradient id="linearGradient4311"><stop style="stop-color:#ccc;stop-opacity:1" id="stop4313" offset="0"/><stop style="stop-color:#ccc;stop-opacity:0" id="stop4315" offset="1"/></linearGradient><linearGradient id="linearGradient4185"><stop style="stop-color:#498e19;stop-opacity:1" id="stop4187" offset="0"/><stop style="stop-color:#74e128;stop-opacity:.60869563" id="stop4189" offset="1"/></linearGradient><linearGradient id="linearGradient4159"><stop id="stop4161" offset="0" style="stop-color:#fff;stop-opacity:.56521738"/><stop id="stop4163" offset="1" style="stop-color:#626262;stop-opacity:.26086956"/></linearGradient><linearGradient id="linearGradient4871"><stop style="stop-color:#22aa2a;stop-opacity:1" id="stop4873" offset="0"/><stop style="stop-color:#22aa2a;stop-opacity:0" id="stop4875" offset="1"/></linearGradient><linearGradient id="linearGradient4853"><stop id="stop4855" offset="0" style="stop-color:#fff;stop-opacity:1"/><stop id="stop4857" offset="1" style="stop-color:#fff;stop-opacity:0"/></linearGradient><linearGradient id="linearGradient4837"><stop id="stop4839" offset="0" style="stop-color:#fff;stop-opacity:1"/><stop id="stop4841" offset="1" style="stop-color:#fffffb;stop-opacity:0"/></linearGradient><linearGradient id="linearGradient4772"><stop style="stop-color:#22aa2a;stop-opacity:0" id="stop4774" offset="0"/><stop style="stop-color:#fff;stop-opacity:1" id="stop4776" offset="1"/></linearGradient><linearGradient id="linearGradient4291"><stop style="stop-color:#898989;stop-opacity:1" id="stop4293" offset="0"/><stop style="stop-color:#fff;stop-opacity:0" id="stop4295" offset="1"/></linearGradient><linearGradient id="linearGradient4283"><stop style="stop-color:#898989;stop-opacity:1" id="stop4285" offset="0"/><stop style="stop-color:#cdcdcd;stop-opacity:1" id="stop4287" offset="1"/></linearGradient><linearGradient id="linearGradient4013"><stop style="stop-color:#fff;stop-opacity:0" id="stop4015" offset="0"/><stop style="stop-color:#fff;stop-opacity:.74637681" id="stop4017" offset="1"/></linearGradient><linearGradient id="linearGradient4722"><stop id="stop4724" offset="0" style="stop-color:#f7d07f;stop-opacity:1"/><stop id="stop4726" offset="1" style="stop-color:#cc7d32;stop-opacity:1"/></linearGradient><linearGradient id="linearGradient4678"><stop style="stop-color:#c7c7c7;stop-opacity:1" id="stop4680" offset="0"/><stop style="stop-color:#c7c7c7;stop-opacity:0" id="stop4682" offset="1"/></linearGradient><linearGradient id="linearGradient4668"><stop style="stop-color:#81a5d0;stop-opacity:1" id="stop4670" offset="0"/><stop style="stop-color:#81a5d0;stop-opacity:0" id="stop4672" offset="1"/></linearGradient><linearGradient id="linearGradient4555"><stop id="stop4557" offset="0" style="stop-color:#c9c9c9;stop-opacity:1"/><stop id="stop4559" offset="1" style="stop-color:#fff;stop-opacity:1"/></linearGradient><linearGradient id="linearGradient4349"><stop style="stop-color:#444;stop-opacity:1" id="stop4351" offset="0"/><stop style="stop-color:#dadada;stop-opacity:1" id="stop4353" offset="1"/></linearGradient><linearGradient id="linearGradient4341"><stop style="stop-color:#e90000;stop-opacity:1" id="stop4343" offset="0"/><stop style="stop-color:#ffe734;stop-opacity:1" id="stop4345" offset="1"/></linearGradient><linearGradient id="linearGradient4329"><stop style="stop-color:#ccc;stop-opacity:1" id="stop4331" offset="0"/><stop style="stop-color:#ccc;stop-opacity:0" id="stop4333" offset="1"/></linearGradient><linearGradient id="linearGradient4198"><stop style="stop-color:#ccc;stop-opacity:1" id="stop4200" offset="0"/><stop style="stop-color:#ccc;stop-opacity:0" id="stop4202" offset="1"/></linearGradient><linearGradient id="linearGradient4174"><stop style="stop-color:#767676;stop-opacity:1" id="stop4176" offset="0"/><stop style="stop-color:#767676;stop-opacity:0" id="stop4178" offset="1"/></linearGradient><linearGradient id="linearGradient4120"><stop style="stop-color:#000;stop-opacity:1" id="stop4122" offset="0"/><stop style="stop-color:#000;stop-opacity:0" id="stop4124" offset="1"/></linearGradient><linearGradient id="linearGradient4108"><stop style="stop-color:#767676;stop-opacity:1" id="stop4110" offset="0"/><stop style="stop-color:#767676;stop-opacity:0" id="stop4112" offset="1"/></linearGradient><linearGradient id="linearGradient4114" x1="176.045" x2="175.361" y1="416.913" y2="391.786" gradientTransform="matrix(1.439549,0,0,1.0538328,81.187122,-293.79656)" gradientUnits="userSpaceOnUse" xlink:href="#linearGradient4108"/><linearGradient id="linearGradient4118" x1="176.045" x2="175.361" y1="416.913" y2="391.786" gradientTransform="matrix(1.439549,0,0,1.0538328,117.95635,-293.79656)" gradientUnits="userSpaceOnUse" xlink:href="#linearGradient4108"/><linearGradient id="linearGradient4130" x1="177.532" x2="212.745" y1="435.709" y2="402.248" gradientUnits="userSpaceOnUse" xlink:href="#linearGradient4120"/><linearGradient id="linearGradient4134" x1="176.045" x2="175.361" y1="416.913" y2="391.786" gradientTransform="matrix(0,1.4398228,-0.98606584,0,768.95943,-77.459478)" gradientUnits="userSpaceOnUse" xlink:href="#linearGradient4108"/><linearGradient id="linearGradient4138" x1="176.045" x2="175.361" y1="416.913" y2="391.786" gradientTransform="matrix(0,1.4398228,-0.98606584,0,768.95943,-119.68514)" gradientUnits="userSpaceOnUse" xlink:href="#linearGradient4108"/><linearGradient id="linearGradient4164" x1="177.532" x2="212.745" y1="435.709" y2="402.248" gradientUnits="userSpaceOnUse" xlink:href="#linearGradient4120"/><linearGradient id="linearGradient4306" x1="122.322" x2="137.748" y1="439.496" y2="424.344" gradientUnits="userSpaceOnUse" xlink:href="#linearGradient4174"/><linearGradient id="linearGradient4308" x1="118.075" x2="136.817" y1="433.486" y2="423.89" gradientUnits="userSpaceOnUse" xlink:href="#linearGradient4198"/><linearGradient id="linearGradient4310" x1="122.322" x2="137.748" y1="439.496" y2="424.344" gradientUnits="userSpaceOnUse" xlink:href="#linearGradient4174"/><linearGradient id="linearGradient4499" x1="127.875" x2="140.5" y1="461.078" y2="445.516" gradientTransform="translate(0,-17.589281)" gradientUnits="userSpaceOnUse" xlink:href="#linearGradient4329"/><linearGradient id="linearGradient4501" x1="141.325" x2="142.872" y1="457.921" y2="446.994" gradientTransform="translate(-7.7179882,-3.4786192)" gradientUnits="userSpaceOnUse" xlink:href="#linearGradient4341"/><linearGradient id="linearGradient4503" x1="138.148" x2="145.396" y1="456.462" y2="449.024" gradientTransform="translate(-7.7179882,-3.4786192)" gradientUnits="userSpaceOnUse" xlink:href="#linearGradient4349"/><clipPath id="clipPath4650" clipPathUnits="userSpaceOnUse"><path id="path4652" d="m 271.94279,421.1766 0,6.91334 -31.43895,0 0,-10.95219 c 0,0 3.68339,-6.18159 5.73858,-5.87599 2.05519,0.3056 7.24014,5.4983 9.55751,5.4719 2.31739,-0.0264 16.14286,4.44294 16.14286,4.44294 z" style="fill:none;stroke:#fff;stroke-width:.0990306;stroke-linecap:round;stroke-linejoin:round;stroke-miterlimit:4;stroke-opacity:1;stroke-dasharray:none;stroke-dashoffset:0"/></clipPath><linearGradient id="linearGradient4704" x1="252.654" x2="269.46" y1="451.257" y2="408.882" gradientUnits="userSpaceOnUse" xlink:href="#linearGradient4555"/><linearGradient id="linearGradient4706" x1="248.553" x2="239.45" y1="418.966" y2="409.083" gradientUnits="userSpaceOnUse" xlink:href="#linearGradient4668"/><linearGradient id="linearGradient4708" x1="247.753" x2="247.751" y1="411.171" y2="423.693" gradientUnits="userSpaceOnUse" xlink:href="#linearGradient4678"/><linearGradient id="linearGradient4073" x1="283.625" x2="283.625" y1="429.986" y2="434.331" gradientTransform="translate(0,-1.8119611)" gradientUnits="userSpaceOnUse" xlink:href="#linearGradient4722"/><radialGradient id="radialGradient4075" cx="294.403" cy="445.647" r="10.5" fx="294.403" fy="445.647" gradientTransform="matrix(1.51705,0.83748066,-0.53193409,0.96356929,82.364757,-244.97089)" gradientUnits="userSpaceOnUse" xlink:href="#linearGradient4013"/><linearGradient id="linearGradient4267" x1="177.532" x2="212.745" y1="435.709" y2="402.248" gradientUnits="userSpaceOnUse" xlink:href="#linearGradient4120"/><linearGradient id="linearGradient4674" x1="228.828" x2="212.417" y1="448.431" y2="450.022" gradientUnits="userSpaceOnUse" xlink:href="#linearGradient4283"/><linearGradient id="linearGradient4676" x1="212.962" x2="228.725" y1="450.331" y2="450.331" gradientUnits="userSpaceOnUse" xlink:href="#linearGradient4283"/><linearGradient id="linearGradient4679" x1="212.962" x2="228.725" y1="450.331" y2="450.331" gradientUnits="userSpaceOnUse" xlink:href="#linearGradient4283"/><linearGradient id="linearGradient4681" x1="228.37" x2="213.347" y1="450.243" y2="450.448" gradientUnits="userSpaceOnUse" xlink:href="#linearGradient4283"/><linearGradient id="linearGradient4683" x1="228.37" x2="213.347" y1="450.243" y2="450.448" gradientUnits="userSpaceOnUse" xlink:href="#linearGradient4283"/><linearGradient id="linearGradient4715" x1="127.875" x2="140.5" y1="461.078" y2="445.516" gradientTransform="matrix(2.654008,-0.71113931,0.71113931,2.654008,-585.17691,-955.23332)" gradientUnits="userSpaceOnUse" xlink:href="#linearGradient4329"/><linearGradient id="linearGradient4778" x1="-156.51" x2="-135.501" y1="372.876" y2="352.18" gradientUnits="userSpaceOnUse" xlink:href="#linearGradient4772"/><linearGradient id="linearGradient4790" x1="-156.51" x2="-135.501" y1="372.876" y2="352.18" gradientUnits="userSpaceOnUse" xlink:href="#linearGradient4772"/><linearGradient id="linearGradient4798" x1="-156.51" x2="-135.501" y1="372.876" y2="352.18" gradientUnits="userSpaceOnUse" xlink:href="#linearGradient4772"/><linearGradient id="linearGradient4806" x1="-156.51" x2="-135.501" y1="372.876" y2="352.18" gradientUnits="userSpaceOnUse" xlink:href="#linearGradient4772"/><linearGradient id="linearGradient4808" x1="-156.51" x2="-135.501" y1="372.876" y2="352.18" gradientUnits="userSpaceOnUse" xlink:href="#linearGradient4772"/><linearGradient id="linearGradient4867" x1="820.656" x2="839.313" y1="463.641" y2="443.766" gradientUnits="userSpaceOnUse" xlink:href="#linearGradient4837"/><linearGradient id="linearGradient4877" x1="834.74" x2="845.258" y1="448.095" y2="435.898" gradientTransform="translate(0.05524272,0)" gradientUnits="userSpaceOnUse" xlink:href="#linearGradient4871"/><linearGradient id="linearGradient4885" x1="820.656" x2="839.313" y1="463.641" y2="443.766" gradientUnits="userSpaceOnUse" xlink:href="#linearGradient4837"/><linearGradient id="linearGradient4887" x1="834.74" x2="845.258" y1="448.095" y2="435.898" gradientTransform="translate(0.05524272,0)" gradientUnits="userSpaceOnUse" xlink:href="#linearGradient4871"/><clipPath id="clipPath4141" clipPathUnits="userSpaceOnUse"><path id="path4143" d="m 161.9375,556.98718 3.65625,-1.3125 4.25,1 2.53125,-2.03125 3.8125,1.21875 4.5,9.125 -0.28125,0.4375 -3.65625,-1.03125 -2.65625,2 -4.21875,-0.96875 -3.15625,1.125 -4.78125,-9.21875 z" style="fill:none;stroke:#000;stroke-width:.1;stroke-linecap:round;stroke-linejoin:round;stroke-miterlimit:4;stroke-opacity:1;stroke-dasharray:none"/></clipPath><linearGradient id="linearGradient4157" x1="169.744" x2="176.85" y1="560.518" y2="560.518" gradientUnits="userSpaceOnUse" xlink:href="#linearGradient4159"/><linearGradient id="linearGradient4171" x1="161.837" x2="169.975" y1="561.112" y2="561.112" gradientUnits="userSpaceOnUse" xlink:href="#linearGradient4159"/><linearGradient id="linearGradient4191" x1="168.505" x2="170.106" y1="563.584" y2="560.506" gradientUnits="userSpaceOnUse" xlink:href="#linearGradient4185"/><clipPath id="clipPath4278" clipPathUnits="userSpaceOnUse"><path style="fill:none;stroke:#000;stroke-width:.1;stroke-linecap:butt;stroke-linejoin:miter;stroke-miterlimit:4;stroke-opacity:1;stroke-dasharray:none" id="path4280" d="m 36.694758,357.09944 -11.769244,5.3033 2.474874,44.7245 9.29437,1.23744 0,-51.26524"/></clipPath><clipPath id="clipPath4288" clipPathUnits="userSpaceOnUse"><path id="path4290" d="m 36.694758,297.09944 -11.769244,5.3033 2.474874,44.7245 9.29437,1.23744 0,-51.26524" style="fill:none;stroke:#000;stroke-width:.1;stroke-linecap:butt;stroke-linejoin:miter;stroke-miterlimit:4;stroke-opacity:1;stroke-dasharray:none"/></clipPath><linearGradient id="linearGradient4317" x1="36.573" x2="32.62" y1="315.244" y2="315.244" gradientUnits="userSpaceOnUse" xlink:href="#linearGradient4311"/><linearGradient id="linearGradient4334" x1="37.455" x2="30.945" y1="376.678" y2="375.678" gradientUnits="userSpaceOnUse" xlink:href="#linearGradient4327"/><linearGradient id="linearGradient4360" x1="36.573" x2="32.62" y1="315.244" y2="315.244" gradientUnits="userSpaceOnUse" xlink:href="#linearGradient4311"/><linearGradient id="linearGradient4362" x1="37.455" x2="30.945" y1="376.678" y2="375.678" gradientUnits="userSpaceOnUse" xlink:href="#linearGradient4327"/><clipPath id="clipPath4395" clipPathUnits="userSpaceOnUse"><path style="fill:none;stroke:#000;stroke-width:.1;stroke-linecap:butt;stroke-linejoin:miter;stroke-miterlimit:4;stroke-opacity:1;stroke-dasharray:none" id="path4397" d="m -38.291649,313.61237 0,93.69165 -8.200622,-4.24264 -5.833631,-58.51309 -0.53033,-18.73833 z"/></clipPath><linearGradient id="linearGradient4405" x1="-38.714" x2="-50.381" y1="361.519" y2="361.165" gradientUnits="userSpaceOnUse" xlink:href="#linearGradient4407"/><linearGradient id="linearGradient4432" x1="-38.714" x2="-50.381" y1="361.519" y2="361.165" gradientUnits="userSpaceOnUse" xlink:href="#linearGradient4407"/><linearGradient id="linearGradient4458" x1="-38.714" x2="-50.381" y1="361.519" y2="361.165" gradientUnits="userSpaceOnUse" xlink:href="#linearGradient4407"/><linearGradient id="linearGradient4460" x1="36.573" x2="32.62" y1="315.244" y2="315.244" gradientUnits="userSpaceOnUse" xlink:href="#linearGradient4311"/><linearGradient id="linearGradient4462" x1="37.455" x2="30.945" y1="376.678" y2="375.678" gradientUnits="userSpaceOnUse" xlink:href="#linearGradient4327"/><linearGradient id="linearGradient4631" x1="-156.51" x2="-135.501" y1="372.876" y2="352.18" gradientUnits="userSpaceOnUse" xlink:href="#linearGradient4772"/><linearGradient id="linearGradient4643" x1="-156.51" x2="-135.501" y1="372.876" y2="352.18" gradientUnits="userSpaceOnUse" xlink:href="#linearGradient4637"/><clipPath id="clipPath4659" clipPathUnits="userSpaceOnUse"><path style="fill:none;stroke:#767676;stroke-width:.28;stroke-linecap:round;stroke-linejoin:round;stroke-miterlimit:4;stroke-opacity:1;stroke-dasharray:none;stroke-dashoffset:0" id="path4661" d="m 623.5,238.98718 a 32,30.625 0 1 1 -64,0 32,30.625 0 1 1 64,0 z" transform="matrix(-0.13394025,-0.37803211,0.23416188,-0.08296571,-129.44999,608.20723)"/></clipPath><linearGradient id="linearGradient4697" x1="-156.657" x2="-134.948" y1="362.363" y2="362.363" gradientUnits="userSpaceOnUse" xlink:href="#linearGradient4699"/><linearGradient id="linearGradient4716" x1="-156.51" x2="-135.501" y1="372.876" y2="352.18" gradientUnits="userSpaceOnUse" xlink:href="#linearGradient4637"/><linearGradient id="linearGradient4718" x1="-156.51" x2="-135.501" y1="372.876" y2="352.18" gradientUnits="userSpaceOnUse" xlink:href="#linearGradient4637"/><linearGradient id="linearGradient4720" x1="-155.028" x2="-138.915" y1="365.268" y2="356.768" gradientUnits="userSpaceOnUse" xlink:href="#linearGradient4699"/><linearGradient id="linearGradient4723" x1="-156.657" x2="-134.948" y1="362.363" y2="362.363" gradientUnits="userSpaceOnUse" xlink:href="#linearGradient4699"/><linearGradient id="linearGradient4760" x1="-130.083" x2="-52.704" y1="156.049" y2="172.666" gradientUnits="userSpaceOnUse" xlink:href="#linearGradient4754"/><radialGradient id="radialGradient4779" cx="-129.931" cy="157.348" r="40.457" fx="-129.931" fy="157.348" gradientTransform="matrix(1.0873896,0.62920461,-0.49864711,0.86176052,89.815669,103.67546)" gradientUnits="userSpaceOnUse" xlink:href="#linearGradient4773"/><linearGradient id="linearGradient4817" x1="-156.51" x2="-135.501" y1="372.876" y2="352.18" gradientUnits="userSpaceOnUse" xlink:href="#linearGradient4637"/><linearGradient id="linearGradient4821" x1="-156.657" x2="-134.948" y1="362.363" y2="362.363" gradientUnits="userSpaceOnUse" xlink:href="#linearGradient4699"/><linearGradient id="linearGradient4836" x1="-156.51" x2="-135.501" y1="372.876" y2="352.18" gradientUnits="userSpaceOnUse" xlink:href="#linearGradient4637"/><linearGradient id="linearGradient4840" x1="-156.657" x2="-134.948" y1="362.363" y2="362.363" gradientUnits="userSpaceOnUse" xlink:href="#linearGradient4699"/><linearGradient id="linearGradient7498" x1="122.322" x2="137.748" y1="439.496" y2="424.344" gradientUnits="userSpaceOnUse" xlink:href="#linearGradient4174"/><linearGradient id="linearGradient7500" x1="118.075" x2="136.817" y1="433.486" y2="423.89" gradientUnits="userSpaceOnUse" xlink:href="#linearGradient4198"/><linearGradient id="linearGradient7502" x1="122.322" x2="137.748" y1="439.496" y2="424.344" gradientUnits="userSpaceOnUse" xlink:href="#linearGradient4174"/><linearGradient id="linearGradient3919" x1="118.075" x2="136.817" y1="433.486" y2="423.89" gradientTransform="matrix(5.5622379,0,0,5.5622379,-628.56988,-1437.5196)" gradientUnits="userSpaceOnUse" xlink:href="#linearGradient4198"/><linearGradient id="linearGradient3931"><stop style="stop-color:#24ba00;stop-opacity:1" id="stop3933" offset="0"/><stop style="stop-color:#fff;stop-opacity:0" id="stop3935" offset="1"/></linearGradient><linearGradient id="linearGradient4058" x1="-54.898" x2="65.783" y1="43.378" y2="43.378" gradientTransform="matrix(0.57238093,0,0,0.57238093,47.863864,978.74457)" gradientUnits="userSpaceOnUse" xlink:href="#linearGradient3948"/><linearGradient id="linearGradient4060" x1="4.5" x2="26.5" y1="-.75" y2="-.75" gradientUnits="userSpaceOnUse" xlink:href="#linearGradient3956"/><linearGradient id="linearGradient4062" x1="4.5" x2="26.5" y1="-.75" y2="-.75" gradientUnits="userSpaceOnUse" xlink:href="#linearGradient3964"/><linearGradient id="linearGradient4064" x1="4.5" x2="26.5" y1="-.75" y2="-.75" gradientUnits="userSpaceOnUse" xlink:href="#linearGradient3972"/><linearGradient id="linearGradient4066" x1="4.5" x2="26.5" y1="-.75" y2="-.75" gradientUnits="userSpaceOnUse" xlink:href="#linearGradient3972"/><linearGradient id="linearGradient3931-2"><stop style="stop-color:#fa0000;stop-opacity:1" id="stop3933-0" offset="0"/><stop style="stop-color:#fff;stop-opacity:0" id="stop3935-8" offset="1"/></linearGradient><linearGradient id="linearGradient3992" x1="64.496" x2="44.194" y1="1007.063" y2="987.59" gradientUnits="userSpaceOnUse" xlink:href="#linearGradient3985"/><linearGradient id="linearGradient3985"><stop style="stop-color:#da8b00;stop-opacity:1" id="stop3988" offset="0"/><stop style="stop-color:#ffeb8f;stop-opacity:1" id="stop3990" offset="1"/></linearGradient><linearGradient id="linearGradient3219" x1="64.496" x2="44.194" y1="1007.063" y2="987.59" gradientUnits="userSpaceOnUse" xlink:href="#linearGradient3985"/><linearGradient id="linearGradient3221"><stop style="stop-color:#da8b00;stop-opacity:1" id="stop3223" offset="0"/><stop style="stop-color:#ffeb8f;stop-opacity:1" id="stop3225" offset="1"/></linearGradient><linearGradient id="linearGradient3235" x1="64.496" x2="44.194" y1="1007.063" y2="987.59" gradientUnits="userSpaceOnUse" xlink:href="#linearGradient3985"/><linearGradient id="linearGradient4201" x1="64.496" x2="44.194" y1="1007.063" y2="987.59" gradientUnits="userSpaceOnUse" xlink:href="#linearGradient3985"/><linearGradient id="linearGradient4203" x1="64.496" x2="44.194" y1="1007.063" y2="987.59" gradientUnits="userSpaceOnUse" xlink:href="#linearGradient3985"/><linearGradient id="linearGradient3996" x1="13.928" x2="90.373" y1="1000.202" y2="1000.202" gradientTransform="translate(-1.5909903,1)" gradientUnits="userSpaceOnUse" xlink:href="#linearGradient3974"/><linearGradient id="linearGradient3974"><stop style="stop-color:#acff63;stop-opacity:1" id="stop3976-3" offset="0"/><stop style="stop-color:#1deb00;stop-opacity:1" id="stop3978" offset="1"/></linearGradient><linearGradient id="linearGradient3170" x1="13.928" x2="90.373" y1="1000.202" y2="1000.202" gradientTransform="translate(-1.5909903,1)" gradientUnits="userSpaceOnUse" xlink:href="#linearGradient3974"/><linearGradient id="linearGradient4251" x1="13.928" x2="90.373" y1="1000.202" y2="1000.202" gradientTransform="translate(-1.5909903,1)" gradientUnits="userSpaceOnUse" xlink:href="#linearGradient3974"/></defs><metadata id="metadata3125"/><g id="layer1" transform="translate(0,-952.36218)"><g id="g4051" transform="translate(-7.4246213,-8.1317281)"><path id="path3167" d="m 56.270707,966.92128 c -13.446201,-0.14513 -25.476163,6.63026 -33.97047,18.41399 -6.648408,7.87107 -11.784229,28.61073 3.670056,44.06493 6.822206,6.8223 14.881903,12.02 26.186426,10.5891 24.347167,-3.129 19.743565,-13.6812 11.161428,-13.6835 -7.488699,0 -15.481195,-10.3452 0.715476,-14.5063 5.151428,-1.574 15.597379,0 19.604046,-10.589 5.184295,-17.52823 -3.111483,-27.99571 -13.021666,-31.48097 -5.084253,-1.86793 -9.86323,-2.75987 -14.345296,-2.80825 z m 15.812022,18.28042 c 2.948707,0.0406 5.503443,1.33526 6.832798,3.77413 2.363296,4.33581 -0.07833,10.67107 -5.455506,14.14857 -5.377176,3.4775 -11.642149,2.7796 -14.005446,-1.5561 -2.363296,-4.33587 0.07833,-10.67116 5.455506,-14.14863 2.352514,-1.52139 4.879209,-2.2495 7.172648,-2.21797 z" style="fill:url(#linearGradient4058);fill-opacity:1;stroke:#5c5c5c;stroke-width:2.00200009;stroke-linecap:butt;stroke-linejoin:miter;stroke-miterlimit:4;stroke-opacity:1;stroke-dasharray:none"/><path id="path3937" d="M 26,-0.75000083 C 26,5.048989 21.29899,9.7499992 15.5,9.7499992 9.7010101,9.7499992 5,5.048989 5,-0.75000083 5,-6.5489907 9.7010101,-11.250001 15.5,-11.250001 c 5.79899,0 10.5,4.7010103 10.5,10.50000017 z" transform="matrix(0.38866219,0.51767271,-0.51767271,0.38866219,48.391462,969.93887)" style="fill:red;fill-opacity:1;stroke:url(#linearGradient4060);stroke-opacity:1"/><path style="fill:#efe110;fill-opacity:1;stroke:url(#linearGradient4062);stroke-opacity:1" id="path3939" d="M 26,-0.75000083 C 26,5.048989 21.29899,9.7499992 15.5,9.7499992 9.7010101,9.7499992 5,5.048989 5,-0.75000083 5,-6.5489907 9.7010101,-11.250001 15.5,-11.250001 c 5.79899,0 10.5,4.7010103 10.5,10.50000017 z" transform="matrix(0.37201927,0.52975937,-0.52975937,0.37201927,32.470601,976.89381)"/><path id="path3941" d="M 26,-0.75000083 C 26,5.048989 21.29899,9.7499992 15.5,9.7499992 9.7010101,9.7499992 5,5.048989 5,-0.75000083 5,-6.5489907 9.7010101,-11.250001 15.5,-11.250001 c 5.79899,0 10.5,4.7010103 10.5,10.50000017 z" transform="matrix(0.57451903,0.29828042,-0.29828042,0.57451903,18.773324,996.08794)" style="fill:#58da58;fill-opacity:1;stroke:url(#linearGradient4064);stroke-opacity:1"/><path style="fill:#7b7bff;fill-opacity:1;stroke:url(#linearGradient4066);stroke-opacity:1" id="path3943" d="M 26,-0.75000083 C 26,5.048989 21.29899,9.7499992 15.5,9.7499992 9.7010101,9.7499992 5,5.048989 5,-0.75000083 5,-6.5489907 9.7010101,-11.250001 15.5,-11.250001 c 5.79899,0 10.5,4.7010103 10.5,10.50000017 z" transform="matrix(0.60870926,0.22026431,-0.22026431,0.60870926,21.306886,1014.6373)"/></g><g id="g4245" transform="matrix(-0.7893864,0,0,-0.7893864,103.78592,1812.3299)" style="stroke:#fff;stroke-width:16.72184944;stroke-miterlimit:4;stroke-opacity:1;stroke-dasharray:none"><path id="path4247" d="m 36.582843,971.26447 c 0.08364,4.97804 0.187568,14.9343 0.187568,14.9343 0,0 -15.91058,-0.12457 -23.233759,-0.12457 0,6.80693 0.04814,20.9078 0.04814,29.8826 4.018724,0 23.2911,0.1118 23.2911,0.1118 0,0.016 -0.0068,12.4461 -0.0084,14.9353 -0.0017,2.4893 50.714702,-30.2422 50.714702,-30.2422 z" style="fill:none;stroke:#fff;stroke-width:16.72184944;stroke-linecap:butt;stroke-linejoin:round;stroke-miterlimit:4;stroke-opacity:1;stroke-dasharray:none"/><path style="fill:url(#linearGradient3170);fill-opacity:1;stroke:#fff;stroke-width:16.72184944;stroke-linecap:butt;stroke-linejoin:round;stroke-miterlimit:4;stroke-opacity:1;stroke-dasharray:none" id="path4249" d="m 36.582843,971.26447 c 0.08364,4.97804 0.187568,14.9343 0.187568,14.9343 0,0 -15.91058,-0.12457 -23.233759,-0.12457 0,6.80693 0.04814,20.9078 0.04814,29.8826 4.018724,0 23.2911,0.1118 23.2911,0.1118 0,0.016 -0.0068,12.4461 -0.0084,14.9353 -0.0017,2.4893 50.714702,-30.2422 50.714702,-30.2422 z"/></g><g id="g3992" transform="matrix(-0.7893864,0,0,-0.7893864,103.78592,1812.3299)"><path style="fill:none;stroke:#263c00;stroke-width:7.8579998;stroke-linecap:butt;stroke-linejoin:round;stroke-miterlimit:4;stroke-opacity:1;stroke-dasharray:none" id="path3970" d="m 36.582843,971.26447 c 0.08364,4.97804 0.187568,14.9343 0.187568,14.9343 0,0 -15.91058,-0.12457 -23.233759,-0.12457 0,6.80693 0.04814,20.9078 0.04814,29.8826 4.018724,0 23.2911,0.1118 23.2911,0.1118 0,0.016 -0.0068,12.4461 -0.0084,14.9353 -0.0017,2.4893 50.714702,-30.2422 50.714702,-30.2422 z"/><path id="path3972" d="m 36.582843,971.26447 c 0.08364,4.97804 0.187568,14.9343 0.187568,14.9343 0,0 -15.91058,-0.12457 -23.233759,-0.12457 0,6.80693 0.04814,20.9078 0.04814,29.8826 4.018724,0 23.2911,0.1118 23.2911,0.1118 0,0.016 -0.0068,12.4461 -0.0084,14.9353 -0.0017,2.4893 50.714702,-30.2422 50.714702,-30.2422 z" style="fill:url(#linearGradient4251);fill-opacity:1;stroke:#fff;stroke-width:2.4000001;stroke-linecap:butt;stroke-linejoin:round;stroke-miterlimit:4;stroke-opacity:1;stroke-dasharray:none"/></g></g></svg>