<svg xmlns="http://www.w3.org/2000/svg" xmlns:svg="http://www.w3.org/2000/svg" xmlns:xlink="http://www.w3.org/1999/xlink" id="svg3120" width="100" height="100" version="1.1"><defs id="defs3122"><linearGradient id="linearGradient3994"><stop style="stop-color:#fff;stop-opacity:1" id="stop3996" offset="0"/><stop style="stop-color:#333;stop-opacity:1" id="stop3998" offset="1"/></linearGradient><linearGradient id="linearGradient3985"><stop style="stop-color:#fff;stop-opacity:1" id="stop3987" offset="0"/><stop style="stop-color:#3879ff;stop-opacity:1" id="stop3989" offset="1"/></linearGradient><linearGradient id="linearGradient3937"><stop style="stop-color:#7dc5ff;stop-opacity:1" id="stop3939" offset="0"/><stop style="stop-color:#0a36da;stop-opacity:1" id="stop3941" offset="1"/></linearGradient><linearGradient id="linearGradient3912"><stop style="stop-color:#88caff;stop-opacity:1" id="stop3914" offset="0"/><stop style="stop-color:#fff;stop-opacity:1" id="stop3916" offset="1"/></linearGradient><linearGradient id="linearGradient4773"><stop id="stop4775" offset="0" style="stop-color:#fff;stop-opacity:.45652175"/><stop id="stop4777" offset="1" style="stop-color:#fff;stop-opacity:0"/></linearGradient><linearGradient id="linearGradient4754"><stop style="stop-color:#f9c559;stop-opacity:1" id="stop4756" offset="0"/><stop style="stop-color:#f98759;stop-opacity:1" id="stop4758" offset="1"/></linearGradient><linearGradient id="linearGradient4699"><stop id="stop4701" offset="0" style="stop-color:#fff;stop-opacity:1"/><stop id="stop4703" offset="1" style="stop-color:#c4c4c4;stop-opacity:1"/></linearGradient><linearGradient id="linearGradient4637"><stop id="stop4639" offset="0" style="stop-color:red;stop-opacity:0"/><stop id="stop4641" offset="1" style="stop-color:#fff;stop-opacity:.77536231"/></linearGradient><linearGradient id="linearGradient4407"><stop id="stop4409" offset="0" style="stop-color:#cbcbcb;stop-opacity:1"/><stop id="stop4411" offset="1" style="stop-color:#e3e3e3;stop-opacity:0"/></linearGradient><linearGradient id="linearGradient4327"><stop style="stop-color:#004a94;stop-opacity:1" id="stop4329" offset="0"/><stop style="stop-color:#004a94;stop-opacity:0" id="stop4332" offset="1"/></linearGradient><linearGradient id="linearGradient4311"><stop style="stop-color:#ccc;stop-opacity:1" id="stop4313" offset="0"/><stop style="stop-color:#ccc;stop-opacity:0" id="stop4315" offset="1"/></linearGradient><linearGradient id="linearGradient4185"><stop style="stop-color:#498e19;stop-opacity:1" id="stop4187" offset="0"/><stop style="stop-color:#74e128;stop-opacity:.60869563" id="stop4189" offset="1"/></linearGradient><linearGradient id="linearGradient4159"><stop id="stop4161" offset="0" style="stop-color:#fff;stop-opacity:.56521738"/><stop id="stop4163" offset="1" style="stop-color:#626262;stop-opacity:.26086956"/></linearGradient><linearGradient id="linearGradient4871"><stop style="stop-color:#22aa2a;stop-opacity:1" id="stop4873" offset="0"/><stop style="stop-color:#22aa2a;stop-opacity:0" id="stop4875" offset="1"/></linearGradient><linearGradient id="linearGradient4853"><stop id="stop4855" offset="0" style="stop-color:#fff;stop-opacity:1"/><stop id="stop4857" offset="1" style="stop-color:#fff;stop-opacity:0"/></linearGradient><linearGradient id="linearGradient4837"><stop id="stop4839" offset="0" style="stop-color:#fff;stop-opacity:1"/><stop id="stop4841" offset="1" style="stop-color:#fffffb;stop-opacity:0"/></linearGradient><linearGradient id="linearGradient4772"><stop style="stop-color:#22aa2a;stop-opacity:0" id="stop4774" offset="0"/><stop style="stop-color:#fff;stop-opacity:1" id="stop4776" offset="1"/></linearGradient><linearGradient id="linearGradient4291"><stop style="stop-color:#898989;stop-opacity:1" id="stop4293" offset="0"/><stop style="stop-color:#fff;stop-opacity:0" id="stop4295" offset="1"/></linearGradient><linearGradient id="linearGradient4283"><stop style="stop-color:#898989;stop-opacity:1" id="stop4285" offset="0"/><stop style="stop-color:#cdcdcd;stop-opacity:1" id="stop4287" offset="1"/></linearGradient><linearGradient id="linearGradient4013"><stop style="stop-color:#fff;stop-opacity:0" id="stop4015" offset="0"/><stop style="stop-color:#fff;stop-opacity:.74637681" id="stop4017" offset="1"/></linearGradient><linearGradient id="linearGradient4722"><stop id="stop4724" offset="0" style="stop-color:#f7d07f;stop-opacity:1"/><stop id="stop4726" offset="1" style="stop-color:#cc7d32;stop-opacity:1"/></linearGradient><linearGradient id="linearGradient4678"><stop style="stop-color:#c7c7c7;stop-opacity:1" id="stop4680" offset="0"/><stop style="stop-color:#c7c7c7;stop-opacity:0" id="stop4682" offset="1"/></linearGradient><linearGradient id="linearGradient4668"><stop style="stop-color:#81a5d0;stop-opacity:1" id="stop4670" offset="0"/><stop style="stop-color:#81a5d0;stop-opacity:0" id="stop4672" offset="1"/></linearGradient><linearGradient id="linearGradient4555"><stop id="stop4557" offset="0" style="stop-color:#c9c9c9;stop-opacity:1"/><stop id="stop4559" offset="1" style="stop-color:#fff;stop-opacity:1"/></linearGradient><linearGradient id="linearGradient4349"><stop style="stop-color:#444;stop-opacity:1" id="stop4351" offset="0"/><stop style="stop-color:#dadada;stop-opacity:1" id="stop4353" offset="1"/></linearGradient><linearGradient id="linearGradient4341"><stop style="stop-color:#e90000;stop-opacity:1" id="stop4343" offset="0"/><stop style="stop-color:#ffe734;stop-opacity:1" id="stop4345" offset="1"/></linearGradient><linearGradient id="linearGradient4329"><stop style="stop-color:#ccc;stop-opacity:1" id="stop4331" offset="0"/><stop style="stop-color:#ccc;stop-opacity:0" id="stop4333" offset="1"/></linearGradient><linearGradient id="linearGradient4198"><stop style="stop-color:#ccc;stop-opacity:1" id="stop4200" offset="0"/><stop style="stop-color:#ccc;stop-opacity:0" id="stop4202" offset="1"/></linearGradient><linearGradient id="linearGradient4174"><stop style="stop-color:#767676;stop-opacity:1" id="stop4176" offset="0"/><stop style="stop-color:#767676;stop-opacity:0" id="stop4178" offset="1"/></linearGradient><linearGradient id="linearGradient4120"><stop style="stop-color:#000;stop-opacity:1" id="stop4122" offset="0"/><stop style="stop-color:#000;stop-opacity:0" id="stop4124" offset="1"/></linearGradient><linearGradient id="linearGradient4108"><stop style="stop-color:#767676;stop-opacity:1" id="stop4110" offset="0"/><stop style="stop-color:#767676;stop-opacity:0" id="stop4112" offset="1"/></linearGradient><linearGradient id="linearGradient4114" x1="176.045" x2="175.361" y1="416.913" y2="391.786" gradientTransform="matrix(1.439549,0,0,1.0538328,81.187122,-293.79656)" gradientUnits="userSpaceOnUse" xlink:href="#linearGradient4108"/><linearGradient id="linearGradient4118" x1="176.045" x2="175.361" y1="416.913" y2="391.786" gradientTransform="matrix(1.439549,0,0,1.0538328,117.95635,-293.79656)" gradientUnits="userSpaceOnUse" xlink:href="#linearGradient4108"/><linearGradient id="linearGradient4130" x1="177.532" x2="212.745" y1="435.709" y2="402.248" gradientUnits="userSpaceOnUse" xlink:href="#linearGradient4120"/><linearGradient id="linearGradient4134" x1="176.045" x2="175.361" y1="416.913" y2="391.786" gradientTransform="matrix(0,1.4398228,-0.98606584,0,768.95943,-77.459478)" gradientUnits="userSpaceOnUse" xlink:href="#linearGradient4108"/><linearGradient id="linearGradient4138" x1="176.045" x2="175.361" y1="416.913" y2="391.786" gradientTransform="matrix(0,1.4398228,-0.98606584,0,768.95943,-119.68514)" gradientUnits="userSpaceOnUse" xlink:href="#linearGradient4108"/><linearGradient id="linearGradient4164" x1="177.532" x2="212.745" y1="435.709" y2="402.248" gradientUnits="userSpaceOnUse" xlink:href="#linearGradient4120"/><linearGradient id="linearGradient4306" x1="122.322" x2="137.748" y1="439.496" y2="424.344" gradientUnits="userSpaceOnUse" xlink:href="#linearGradient4174"/><linearGradient id="linearGradient4308" x1="118.075" x2="136.817" y1="433.486" y2="423.89" gradientUnits="userSpaceOnUse" xlink:href="#linearGradient4198"/><linearGradient id="linearGradient4310" x1="122.322" x2="137.748" y1="439.496" y2="424.344" gradientUnits="userSpaceOnUse" xlink:href="#linearGradient4174"/><linearGradient id="linearGradient4499" x1="127.875" x2="140.5" y1="461.078" y2="445.516" gradientTransform="translate(0,-17.589281)" gradientUnits="userSpaceOnUse" xlink:href="#linearGradient4329"/><linearGradient id="linearGradient4501" x1="141.325" x2="142.872" y1="457.921" y2="446.994" gradientTransform="translate(-7.7179882,-3.4786192)" gradientUnits="userSpaceOnUse" xlink:href="#linearGradient4341"/><linearGradient id="linearGradient4503" x1="138.148" x2="145.396" y1="456.462" y2="449.024" gradientTransform="translate(-7.7179882,-3.4786192)" gradientUnits="userSpaceOnUse" xlink:href="#linearGradient4349"/><clipPath id="clipPath4650" clipPathUnits="userSpaceOnUse"><path id="path4652" d="m 271.94279,421.1766 0,6.91334 -31.43895,0 0,-10.95219 c 0,0 3.68339,-6.18159 5.73858,-5.87599 2.05519,0.3056 7.24014,5.4983 9.55751,5.4719 2.31739,-0.0264 16.14286,4.44294 16.14286,4.44294 z" style="fill:none;stroke:#fff;stroke-width:.0990306;stroke-linecap:round;stroke-linejoin:round;stroke-miterlimit:4;stroke-opacity:1;stroke-dasharray:none;stroke-dashoffset:0"/></clipPath><linearGradient id="linearGradient4704" x1="252.654" x2="269.46" y1="451.257" y2="408.882" gradientUnits="userSpaceOnUse" xlink:href="#linearGradient4555"/><linearGradient id="linearGradient4706" x1="248.553" x2="239.45" y1="418.966" y2="409.083" gradientUnits="userSpaceOnUse" xlink:href="#linearGradient4668"/><linearGradient id="linearGradient4708" x1="247.753" x2="247.751" y1="411.171" y2="423.693" gradientUnits="userSpaceOnUse" xlink:href="#linearGradient4678"/><linearGradient id="linearGradient4073" x1="283.625" x2="283.625" y1="429.986" y2="434.331" gradientTransform="translate(0,-1.8119611)" gradientUnits="userSpaceOnUse" xlink:href="#linearGradient4722"/><radialGradient id="radialGradient4075" cx="294.403" cy="445.647" r="10.5" fx="294.403" fy="445.647" gradientTransform="matrix(1.51705,0.83748066,-0.53193409,0.96356929,82.364757,-244.97089)" gradientUnits="userSpaceOnUse" xlink:href="#linearGradient4013"/><linearGradient id="linearGradient4267" x1="177.532" x2="212.745" y1="435.709" y2="402.248" gradientUnits="userSpaceOnUse" xlink:href="#linearGradient4120"/><linearGradient id="linearGradient4674" x1="228.828" x2="212.417" y1="448.431" y2="450.022" gradientUnits="userSpaceOnUse" xlink:href="#linearGradient4283"/><linearGradient id="linearGradient4676" x1="212.962" x2="228.725" y1="450.331" y2="450.331" gradientUnits="userSpaceOnUse" xlink:href="#linearGradient4283"/><linearGradient id="linearGradient4679" x1="212.962" x2="228.725" y1="450.331" y2="450.331" gradientUnits="userSpaceOnUse" xlink:href="#linearGradient4283"/><linearGradient id="linearGradient4681" x1="228.37" x2="213.347" y1="450.243" y2="450.448" gradientUnits="userSpaceOnUse" xlink:href="#linearGradient4283"/><linearGradient id="linearGradient4683" x1="228.37" x2="213.347" y1="450.243" y2="450.448" gradientUnits="userSpaceOnUse" xlink:href="#linearGradient4283"/><linearGradient id="linearGradient4715" x1="127.875" x2="140.5" y1="461.078" y2="445.516" gradientTransform="matrix(2.654008,-0.71113931,0.71113931,2.654008,-585.17691,-955.23332)" gradientUnits="userSpaceOnUse" xlink:href="#linearGradient4329"/><linearGradient id="linearGradient4778" x1="-156.51" x2="-135.501" y1="372.876" y2="352.18" gradientUnits="userSpaceOnUse" xlink:href="#linearGradient4772"/><linearGradient id="linearGradient4790" x1="-156.51" x2="-135.501" y1="372.876" y2="352.18" gradientUnits="userSpaceOnUse" xlink:href="#linearGradient4772"/><linearGradient id="linearGradient4798" x1="-156.51" x2="-135.501" y1="372.876" y2="352.18" gradientUnits="userSpaceOnUse" xlink:href="#linearGradient4772"/><linearGradient id="linearGradient4806" x1="-156.51" x2="-135.501" y1="372.876" y2="352.18" gradientUnits="userSpaceOnUse" xlink:href="#linearGradient4772"/><linearGradient id="linearGradient4808" x1="-156.51" x2="-135.501" y1="372.876" y2="352.18" gradientUnits="userSpaceOnUse" xlink:href="#linearGradient4772"/><linearGradient id="linearGradient4867" x1="820.656" x2="839.313" y1="463.641" y2="443.766" gradientUnits="userSpaceOnUse" xlink:href="#linearGradient4837"/><linearGradient id="linearGradient4877" x1="834.74" x2="845.258" y1="448.095" y2="435.898" gradientTransform="translate(0.05524272,0)" gradientUnits="userSpaceOnUse" xlink:href="#linearGradient4871"/><linearGradient id="linearGradient4885" x1="820.656" x2="839.313" y1="463.641" y2="443.766" gradientUnits="userSpaceOnUse" xlink:href="#linearGradient4837"/><linearGradient id="linearGradient4887" x1="834.74" x2="845.258" y1="448.095" y2="435.898" gradientTransform="translate(0.05524272,0)" gradientUnits="userSpaceOnUse" xlink:href="#linearGradient4871"/><clipPath id="clipPath4141" clipPathUnits="userSpaceOnUse"><path id="path4143" d="m 161.9375,556.98718 3.65625,-1.3125 4.25,1 2.53125,-2.03125 3.8125,1.21875 4.5,9.125 -0.28125,0.4375 -3.65625,-1.03125 -2.65625,2 -4.21875,-0.96875 -3.15625,1.125 -4.78125,-9.21875 z" style="fill:none;stroke:#000;stroke-width:.1;stroke-linecap:round;stroke-linejoin:round;stroke-miterlimit:4;stroke-opacity:1;stroke-dasharray:none"/></clipPath><linearGradient id="linearGradient4157" x1="169.744" x2="176.85" y1="560.518" y2="560.518" gradientUnits="userSpaceOnUse" xlink:href="#linearGradient4159"/><linearGradient id="linearGradient4171" x1="161.837" x2="169.975" y1="561.112" y2="561.112" gradientUnits="userSpaceOnUse" xlink:href="#linearGradient4159"/><linearGradient id="linearGradient4191" x1="168.505" x2="170.106" y1="563.584" y2="560.506" gradientUnits="userSpaceOnUse" xlink:href="#linearGradient4185"/><clipPath id="clipPath4278" clipPathUnits="userSpaceOnUse"><path style="fill:none;stroke:#000;stroke-width:.1;stroke-linecap:butt;stroke-linejoin:miter;stroke-miterlimit:4;stroke-opacity:1;stroke-dasharray:none" id="path4280" d="m 36.694758,357.09944 -11.769244,5.3033 2.474874,44.7245 9.29437,1.23744 0,-51.26524"/></clipPath><clipPath id="clipPath4288" clipPathUnits="userSpaceOnUse"><path id="path4290" d="m 36.694758,297.09944 -11.769244,5.3033 2.474874,44.7245 9.29437,1.23744 0,-51.26524" style="fill:none;stroke:#000;stroke-width:.1;stroke-linecap:butt;stroke-linejoin:miter;stroke-miterlimit:4;stroke-opacity:1;stroke-dasharray:none"/></clipPath><linearGradient id="linearGradient4317" x1="36.573" x2="32.62" y1="315.244" y2="315.244" gradientUnits="userSpaceOnUse" xlink:href="#linearGradient4311"/><linearGradient id="linearGradient4334" x1="37.455" x2="30.945" y1="376.678" y2="375.678" gradientUnits="userSpaceOnUse" xlink:href="#linearGradient4327"/><linearGradient id="linearGradient4360" x1="36.573" x2="32.62" y1="315.244" y2="315.244" gradientUnits="userSpaceOnUse" xlink:href="#linearGradient4311"/><linearGradient id="linearGradient4362" x1="37.455" x2="30.945" y1="376.678" y2="375.678" gradientUnits="userSpaceOnUse" xlink:href="#linearGradient4327"/><clipPath id="clipPath4395" clipPathUnits="userSpaceOnUse"><path style="fill:none;stroke:#000;stroke-width:.1;stroke-linecap:butt;stroke-linejoin:miter;stroke-miterlimit:4;stroke-opacity:1;stroke-dasharray:none" id="path4397" d="m -38.291649,313.61237 0,93.69165 -8.200622,-4.24264 -5.833631,-58.51309 -0.53033,-18.73833 z"/></clipPath><linearGradient id="linearGradient4405" x1="-38.714" x2="-50.381" y1="361.519" y2="361.165" gradientUnits="userSpaceOnUse" xlink:href="#linearGradient4407"/><linearGradient id="linearGradient4432" x1="-38.714" x2="-50.381" y1="361.519" y2="361.165" gradientUnits="userSpaceOnUse" xlink:href="#linearGradient4407"/><linearGradient id="linearGradient4458" x1="-38.714" x2="-50.381" y1="361.519" y2="361.165" gradientUnits="userSpaceOnUse" xlink:href="#linearGradient4407"/><linearGradient id="linearGradient4460" x1="36.573" x2="32.62" y1="315.244" y2="315.244" gradientUnits="userSpaceOnUse" xlink:href="#linearGradient4311"/><linearGradient id="linearGradient4462" x1="37.455" x2="30.945" y1="376.678" y2="375.678" gradientUnits="userSpaceOnUse" xlink:href="#linearGradient4327"/><linearGradient id="linearGradient4631" x1="-156.51" x2="-135.501" y1="372.876" y2="352.18" gradientUnits="userSpaceOnUse" xlink:href="#linearGradient4772"/><linearGradient id="linearGradient4643" x1="-156.51" x2="-135.501" y1="372.876" y2="352.18" gradientUnits="userSpaceOnUse" xlink:href="#linearGradient4637"/><clipPath id="clipPath4659" clipPathUnits="userSpaceOnUse"><path style="fill:none;stroke:#767676;stroke-width:.28;stroke-linecap:round;stroke-linejoin:round;stroke-miterlimit:4;stroke-opacity:1;stroke-dasharray:none;stroke-dashoffset:0" id="path4661" d="m 623.5,238.98718 a 32,30.625 0 1 1 -64,0 32,30.625 0 1 1 64,0 z" transform="matrix(-0.13394025,-0.37803211,0.23416188,-0.08296571,-129.44999,608.20723)"/></clipPath><linearGradient id="linearGradient4697" x1="-156.657" x2="-134.948" y1="362.363" y2="362.363" gradientUnits="userSpaceOnUse" xlink:href="#linearGradient4699"/><linearGradient id="linearGradient4716" x1="-156.51" x2="-135.501" y1="372.876" y2="352.18" gradientUnits="userSpaceOnUse" xlink:href="#linearGradient4637"/><linearGradient id="linearGradient4718" x1="-156.51" x2="-135.501" y1="372.876" y2="352.18" gradientUnits="userSpaceOnUse" xlink:href="#linearGradient4637"/><linearGradient id="linearGradient4720" x1="-155.028" x2="-138.915" y1="365.268" y2="356.768" gradientUnits="userSpaceOnUse" xlink:href="#linearGradient4699"/><linearGradient id="linearGradient4723" x1="-156.657" x2="-134.948" y1="362.363" y2="362.363" gradientUnits="userSpaceOnUse" xlink:href="#linearGradient4699"/><linearGradient id="linearGradient4760" x1="-130.083" x2="-52.704" y1="156.049" y2="172.666" gradientUnits="userSpaceOnUse" xlink:href="#linearGradient4754"/><radialGradient id="radialGradient4779" cx="-129.931" cy="157.348" r="40.457" fx="-129.931" fy="157.348" gradientTransform="matrix(1.0873896,0.62920461,-0.49864711,0.86176052,89.815669,103.67546)" gradientUnits="userSpaceOnUse" xlink:href="#linearGradient4773"/><linearGradient id="linearGradient4817" x1="-156.51" x2="-135.501" y1="372.876" y2="352.18" gradientUnits="userSpaceOnUse" xlink:href="#linearGradient4637"/><linearGradient id="linearGradient4821" x1="-156.657" x2="-134.948" y1="362.363" y2="362.363" gradientUnits="userSpaceOnUse" xlink:href="#linearGradient4699"/><linearGradient id="linearGradient4836" x1="-156.51" x2="-135.501" y1="372.876" y2="352.18" gradientUnits="userSpaceOnUse" xlink:href="#linearGradient4637"/><linearGradient id="linearGradient4840" x1="-156.657" x2="-134.948" y1="362.363" y2="362.363" gradientUnits="userSpaceOnUse" xlink:href="#linearGradient4699"/><linearGradient id="linearGradient7712" x1="-38.714" x2="-50.381" y1="361.519" y2="361.165" gradientUnits="userSpaceOnUse" xlink:href="#linearGradient4407"/><linearGradient id="linearGradient7714" x1="36.573" x2="32.62" y1="315.244" y2="315.244" gradientUnits="userSpaceOnUse" xlink:href="#linearGradient4311"/><linearGradient id="linearGradient7716" x1="37.455" x2="30.945" y1="376.678" y2="375.678" gradientUnits="userSpaceOnUse" xlink:href="#linearGradient4327"/><clipPath id="clipPath3169" clipPathUnits="userSpaceOnUse"><path style="fill:none;stroke:#000;stroke-width:1px;stroke-linecap:butt;stroke-linejoin:miter;stroke-opacity:1" id="path3171" d="m 206,895.86218 66.5,0 -4.5,-49 -53,-7.5 z"/></clipPath><radialGradient id="radialGradient3918" cx="52.427" cy="38.34" r="28.939" fx="52.427" fy="38.34" gradientTransform="matrix(1.0225217,0.00450434,-0.00440508,0.99999029,-3.6910241,-0.41622965)" gradientUnits="userSpaceOnUse" xlink:href="#linearGradient3912"/><radialGradient id="radialGradient3936" cx="52.427" cy="38.34" r="28.939" fx="52.427" fy="38.34" gradientTransform="matrix(1.0225217,0.00450434,-0.00440508,0.99999029,-3.6910241,-0.41622965)" gradientUnits="userSpaceOnUse" xlink:href="#linearGradient3912"/><linearGradient id="linearGradient3937-1" x1="31.356" x2="101.122" y1="52.469" y2="10.309" gradientUnits="userSpaceOnUse" xlink:href="#linearGradient3931"/><linearGradient id="linearGradient3931"><stop style="stop-color:#24ba00;stop-opacity:1" id="stop3933" offset="0"/><stop style="stop-color:#fff;stop-opacity:0" id="stop3935" offset="1"/></linearGradient><linearGradient id="linearGradient3992" x1="21.734" x2="79.865" y1="972.049" y2="1030.548" gradientTransform="matrix(0.91027648,0,0,0.91027648,4.8621633,90.485554)" gradientUnits="userSpaceOnUse" xlink:href="#linearGradient3985"/><filter id="filter4018"><feGaussianBlur id="feGaussianBlur4020" stdDeviation=".513"/></filter><linearGradient id="linearGradient3177" x1="21.734" x2="79.865" y1="972.049" y2="1030.548" gradientTransform="matrix(0.91027648,0,0,0.91027648,4.8621633,90.485554)" gradientUnits="userSpaceOnUse" xlink:href="#linearGradient3985"/><linearGradient id="linearGradient3187" x1="21.734" x2="79.865" y1="972.049" y2="1030.548" gradientTransform="matrix(0.91027648,0,0,0.91027648,4.8621633,90.485554)" gradientUnits="userSpaceOnUse" xlink:href="#linearGradient3985"/><linearGradient id="linearGradient3189" x1="21.734" x2="79.865" y1="972.049" y2="1030.548" gradientTransform="matrix(0.91027648,0,0,0.91027648,4.8621633,90.485554)" gradientUnits="userSpaceOnUse" xlink:href="#linearGradient3985"/><linearGradient id="linearGradient3961" x1="21.734" x2="79.865" y1="972.049" y2="1030.548" gradientTransform="matrix(0.70561123,-0.08675681,0.08675681,0.70561123,-88.163323,301.63564)" gradientUnits="userSpaceOnUse" xlink:href="#linearGradient3985"/><linearGradient id="linearGradient3966" x1="21.734" x2="79.865" y1="972.049" y2="1030.548" gradientTransform="matrix(0.35033299,0,0,0.35033299,52.37434,628.39684)" gradientUnits="userSpaceOnUse" xlink:href="#linearGradient3985"/><linearGradient id="linearGradient3189-3" x1="48.127" x2="80.083" y1="995.374" y2="995.374" gradientTransform="matrix(-0.86297491,0,0,-0.74896648,107.36073,1767.6621)" gradientUnits="userSpaceOnUse" xlink:href="#linearGradient3925"/><linearGradient id="linearGradient3925"><stop style="stop-color:#d7d7d7;stop-opacity:1" id="stop3927" offset="0"/><stop style="stop-color:#2b2b2b;stop-opacity:1" id="stop3929" offset="1"/></linearGradient><linearGradient id="linearGradient3192" x1="48.127" x2="80.083" y1="995.374" y2="995.374" gradientTransform="matrix(0.86206455,-0.03439366,0.0396291,0.74817638,-13.095814,279.32963)" gradientUnits="userSpaceOnUse" xlink:href="#linearGradient3925"/><linearGradient id="linearGradient3195" x1="48.127" x2="80.083" y1="995.374" y2="995.374" gradientTransform="matrix(-0.86297491,0,0,-0.74896647,107.36073,1767.6621)" gradientUnits="userSpaceOnUse" xlink:href="#linearGradient3974"/><linearGradient id="linearGradient3974"><stop style="stop-color:#acff63;stop-opacity:1" id="stop3976" offset="0"/><stop style="stop-color:#1deb00;stop-opacity:1" id="stop3978" offset="1"/></linearGradient><linearGradient id="linearGradient3198" x1="48.127" x2="80.083" y1="995.374" y2="995.374" gradientTransform="matrix(0.86206454,-0.03439366,0.0396291,0.74817638,-13.095815,279.32962)" gradientUnits="userSpaceOnUse" xlink:href="#linearGradient3974"/></defs><metadata id="metadata3125"/><g id="layer1" transform="translate(0,-952.36218)" style="display:inline"><path id="path3983" d="m 26.147306,975.01967 c -1.207616,0.14848 -2.063062,1.24378 -1.914582,2.45139 l 0.788945,6.41666 c -1.016773,0.47508 -1.992847,1.01422 -2.910461,1.63372 l -5.076109,-3.96454 c -0.958909,-0.74893 -2.338123,-0.57935 -3.087049,0.37956 l -5.4729965,7.0075 c -0.7489186,0.95891 -0.5793396,2.33813 0.3795611,3.08705 l 5.0761084,3.96454 c -0.378749,1.04035 -0.665394,2.11795 -0.880019,3.21954 l -6.4166469,0.78891 c -1.2076162,0.1485 -2.0630629,1.2438 -1.9145832,2.4514 l 1.0844586,8.8201 c 0.1484806,1.2077 1.2437771,2.0631 2.4513933,1.9146 l 6.4166472,-0.7889 c 0.475083,1.0168 1.014235,1.9929 1.633718,2.9105 l -3.964542,5.076 c -0.748919,0.9589 -0.579328,2.3382 0.379565,3.0871 l 7.00751,5.473 c 0.95891,0.7489 2.338123,0.5794 3.08705,-0.3795 l 3.964533,-5.0762 c 1.040351,0.3788 2.117963,0.6655 3.219538,0.8801 l 0.788933,6.4166 c 0.14849,1.2077 1.243787,2.0631 2.451403,1.9146 l 8.820143,-1.0844 c 1.207616,-0.1485 2.06306,-1.2438 1.91457,-2.4515 l -0.788933,-6.4166 c 1.016771,-0.4751 1.992841,-1.0143 2.910454,-1.6337 l 5.076113,3.9645 c 0.958909,0.7489 2.338123,0.5794 3.087049,-0.3795 l 5.472992,-7.0076 c 0.748928,-0.9588 0.579337,-2.3381 -0.379565,-3.0871 l -5.076103,-3.9644 c 0.378754,-1.0404 0.665397,-2.118 0.880021,-3.2196 l 6.416647,-0.7889 c 1.207624,-0.1485 2.06306,-1.2438 1.91458,-2.4514 l -1.084459,-8.82016 c -0.14848,-1.20761 -1.243766,-2.06305 -2.45139,-1.91457 l -6.416646,0.78894 c -0.475083,-1.01678 -1.014233,-1.99284 -1.633721,-2.91047 l 3.964537,-5.0761 c 0.748919,-0.95891 0.57934,-2.33813 -0.379561,-3.08705 l -7.007506,-5.47299 c -0.958909,-0.74893 -2.338123,-0.57935 -3.08705,0.37956 l -3.964537,5.07611 c -1.040351,-0.37876 -2.117958,-0.6654 -3.219531,-0.88002 l -0.788945,-6.41666 c -0.14848,-1.20761 -1.243774,-2.06306 -2.451391,-1.91458 l -8.820143,1.08446 z m 6.356678,15.28992 c 7.182746,-0.88313 13.726145,4.22738 14.609284,11.41011 0.883145,7.1828 -4.227382,13.7262 -11.410128,14.6093 -7.182747,0.8831 -13.726137,-4.2273 -14.609282,-11.4101 -0.883139,-7.18277 4.227379,-13.72617 11.410126,-14.60931 z" style="fill:none;stroke:#242424;stroke-width:2;stroke-miterlimit:4;stroke-opacity:1;stroke-dasharray:none"/><path style="fill:url(#linearGradient3961);fill-opacity:1;stroke:#242424;stroke-width:.78099865;stroke-opacity:1" id="path3174" d="m 26.147306,975.01967 c -1.207616,0.14848 -2.063062,1.24378 -1.914582,2.45139 l 0.788945,6.41666 c -1.016773,0.47508 -1.992847,1.01422 -2.910461,1.63372 l -5.076109,-3.96454 c -0.958909,-0.74893 -2.338123,-0.57935 -3.087049,0.37956 l -5.4729965,7.0075 c -0.7489186,0.95891 -0.5793396,2.33813 0.3795611,3.08705 l 5.0761084,3.96454 c -0.378749,1.04035 -0.665394,2.11795 -0.880019,3.21954 l -6.4166469,0.78891 c -1.207624,0.1485 -2.0630629,1.2438 -1.9145832,2.4514 l 1.0844586,8.8201 c 0.1484806,1.2077 1.2437693,2.0631 2.4513933,1.9146 l 6.4166472,-0.7889 c 0.475083,1.0168 1.014235,1.9929 1.633718,2.9105 l -3.964542,5.076 c -0.748919,0.9589 -0.579328,2.3382 0.379565,3.0871 l 7.00751,5.473 c 0.95891,0.7489 2.338123,0.5794 3.08705,-0.3795 l 3.964533,-5.0762 c 1.040351,0.3788 2.117963,0.6655 3.219538,0.8801 l 0.788933,6.4166 c 0.14849,1.2077 1.243787,2.0631 2.451403,1.9146 l 8.820143,-1.0844 c 1.207616,-0.1485 2.06306,-1.2438 1.91457,-2.4515 l -0.788933,-6.4166 c 1.016771,-0.4751 1.992841,-1.0143 2.910454,-1.6337 l 5.076113,3.9645 c 0.958909,0.7489 2.338123,0.5794 3.087049,-0.3795 l 5.472992,-7.0076 c 0.748928,-0.9588 0.579337,-2.3381 -0.379565,-3.0871 l -5.076103,-3.9644 c 0.378754,-1.0404 0.665397,-2.118 0.880021,-3.2196 l 6.416647,-0.7889 c 1.207624,-0.1485 2.06306,-1.2438 1.91458,-2.4514 l -1.084459,-8.82016 c -0.14848,-1.20761 -1.243766,-2.06305 -2.45139,-1.91457 l -6.416646,0.78894 c -0.475083,-1.01678 -1.014233,-1.99284 -1.633721,-2.91047 l 3.964537,-5.0761 c 0.748919,-0.95891 0.57934,-2.33813 -0.379561,-3.08705 l -7.007506,-5.47299 c -0.958909,-0.74893 -2.338123,-0.57935 -3.08705,0.37956 l -3.964537,5.07611 c -1.040351,-0.37876 -2.117958,-0.6654 -3.219531,-0.88002 l -0.788945,-6.41666 c -0.14848,-1.20761 -1.243774,-2.06306 -2.451391,-1.91458 l -8.820143,1.08446 z m 6.356678,15.28992 c 7.182746,-0.88313 13.726145,4.22738 14.609284,11.41011 0.883145,7.1828 -4.227382,13.7262 -11.410128,14.6093 -7.182747,0.8831 -13.726137,-4.2273 -14.609282,-11.4101 -0.883139,-7.18277 4.227379,-13.72617 11.410126,-14.60931 z"/><path style="fill:none;stroke:#fff;stroke-width:.74256974;stroke-linecap:round;stroke-linejoin:round;stroke-miterlimit:4;stroke-opacity:1;stroke-dasharray:none;stroke-dashoffset:0;filter:url(#filter4018)" id="path4012" d="M 75.767526,51.687949 A 16.175068,16.175068 0 0 1 66.097746,70.351926 16.175068,16.175068 0 0 1 46.156517,63.703917" transform="matrix(0.9284783,-0.40467975,0.40467975,0.9284783,-43.644702,976.45369)"/><path id="path3175" d="M 75.767526,51.687949 A 16.175068,16.175068 0 0 1 66.097746,70.351926 16.175068,16.175068 0 0 1 46.156517,63.703917" transform="matrix(0.61311312,0.15646393,-0.15646393,0.61311312,49.935445,980.37927)" style="fill:none;stroke:#fff;stroke-width:.74256974;stroke-linecap:round;stroke-linejoin:round;stroke-miterlimit:4;stroke-dasharray:none;stroke-dashoffset:0;stroke-opacity:1;filter:url(#filter4018)"/><path id="path3181" d="m 67.78899,964.62444 c -0.599576,0 -1.083843,0.48426 -1.083843,1.08384 l 0,3.18584 c -0.525875,0.17122 -1.035697,0.37622 -1.521758,0.62403 l -2.244321,-2.24432 c -0.423967,-0.42396 -1.108741,-0.42396 -1.532707,0 l -3.098259,3.09826 c -0.423962,0.42396 -0.423962,1.10874 0,1.5327 l 2.244322,2.24432 c -0.247811,0.48607 -0.452813,0.99589 -0.624031,1.52177 l -3.185838,0 c -0.599576,0 -1.083844,0.48426 -1.083844,1.08384 l 0,4.37915 c 0,0.59958 0.484268,1.08386 1.083844,1.08386 l 3.185838,0 c 0.171218,0.52588 0.37622,1.03571 0.624031,1.52175 l -2.244322,2.2443 c -0.423962,0.42397 -0.423962,1.10879 0,1.53272 l 3.098259,3.09828 c 0.423966,0.42396 1.10874,0.42396 1.532707,0 l 2.244321,-2.24434 c 0.486061,0.24781 0.995883,0.45283 1.521758,0.62406 l 0,3.18579 c 0,0.59962 0.484267,1.08389 1.083843,1.08389 l 4.379164,0 c 0.599576,0 1.083844,-0.48427 1.083844,-1.08389 l 0,-3.18579 c 0.525874,-0.17123 1.035697,-0.37625 1.521757,-0.62406 l 2.244321,2.24434 c 0.423967,0.42396 1.108741,0.42396 1.532707,0 l 3.098259,-3.09828 c 0.423962,-0.42393 0.423962,-1.10875 0,-1.53272 l -2.244322,-2.2443 c 0.247811,-0.48604 0.452813,-0.99587 0.624031,-1.52175 l 3.185838,0 c 0.59958,0 1.083844,-0.48428 1.083844,-1.08386 l 0,-4.37915 c 0,-0.59958 -0.484264,-1.08384 -1.083844,-1.08384 l -3.185838,0 c -0.171218,-0.52588 -0.37622,-1.0357 -0.624031,-1.52177 l 2.244322,-2.24432 c 0.423962,-0.42396 0.423962,-1.10874 0,-1.5327 l -3.098259,-3.09826 c -0.423966,-0.42396 -1.10874,-0.42396 -1.532707,0 l -2.244321,2.24432 c -0.48606,-0.24781 -0.995883,-0.45281 -1.521757,-0.62403 l 0,-3.18584 c 0,-0.59958 -0.484268,-1.08384 -1.083844,-1.08384 l -4.379164,0 z m 2.189582,7.86059 c 3.566203,0 6.459264,2.89306 6.459264,6.45927 0,3.56623 -2.893061,6.45926 -6.459264,6.45926 -3.566203,0 -6.459264,-2.89303 -6.459264,-6.45926 0,-3.56621 2.893061,-6.45927 6.459264,-6.45927 z" style="fill:none;stroke:#242424;stroke-width:2;stroke-miterlimit:4;stroke-opacity:1;stroke-dasharray:none"/><path style="fill:url(#linearGradient3966);fill-opacity:1;stroke:#242424;stroke-width:.78099996;stroke-miterlimit:4;stroke-opacity:1;stroke-dasharray:none" id="path3183" d="m 67.78899,964.62444 c -0.599576,0 -1.083843,0.48426 -1.083843,1.08384 l 0,3.18584 c -0.525875,0.17122 -1.035697,0.37622 -1.521758,0.62403 l -2.244321,-2.24432 c -0.423967,-0.42396 -1.108741,-0.42396 -1.532707,0 l -3.098259,3.09826 c -0.423962,0.42396 -0.423962,1.10874 0,1.5327 l 2.244322,2.24432 c -0.247811,0.48607 -0.452813,0.99589 -0.624031,1.52177 l -3.185838,0 c -0.59958,0 -1.083844,0.48426 -1.083844,1.08384 l 0,4.37915 c 0,0.59958 0.484264,1.08386 1.083844,1.08386 l 3.185838,0 c 0.171218,0.52588 0.37622,1.03571 0.624031,1.52175 l -2.244322,2.2443 c -0.423962,0.42397 -0.423962,1.10879 0,1.53272 l 3.098259,3.09828 c 0.423966,0.42396 1.10874,0.42396 1.532707,0 l 2.244321,-2.24434 c 0.486061,0.24781 0.995883,0.45283 1.521758,0.62406 l 0,3.18579 c 0,0.59962 0.484267,1.08389 1.083843,1.08389 l 4.379164,0 c 0.599576,0 1.083844,-0.48427 1.083844,-1.08389 l 0,-3.18579 c 0.525874,-0.17123 1.035697,-0.37625 1.521757,-0.62406 l 2.244321,2.24434 c 0.423967,0.42396 1.108741,0.42396 1.532707,0 l 3.098259,-3.09828 c 0.423962,-0.42393 0.423962,-1.10875 0,-1.53272 l -2.244322,-2.2443 c 0.247811,-0.48604 0.452813,-0.99587 0.624031,-1.52175 l 3.185838,0 c 0.59958,0 1.083844,-0.48428 1.083844,-1.08386 l 0,-4.37915 c 0,-0.59958 -0.484264,-1.08384 -1.083844,-1.08384 l -3.185838,0 c -0.171218,-0.52588 -0.37622,-1.0357 -0.624031,-1.52177 l 2.244322,-2.24432 c 0.423962,-0.42396 0.423962,-1.10874 0,-1.5327 l -3.098259,-3.09826 c -0.423966,-0.42396 -1.10874,-0.42396 -1.532707,0 l -2.244321,2.24432 c -0.48606,-0.24781 -0.995883,-0.45281 -1.521757,-0.62403 l 0,-3.18584 c 0,-0.59958 -0.484268,-1.08384 -1.083844,-1.08384 l -4.379164,0 z m 2.189582,7.86059 c 3.566203,0 6.459264,2.89306 6.459264,6.45927 0,3.56623 -2.893061,6.45926 -6.459264,6.45926 -3.566203,0 -6.459264,-2.89303 -6.459264,-6.45926 0,-3.56621 2.893061,-6.45927 6.459264,-6.45927 z"/><path style="fill:none;stroke:#fff;stroke-width:.74256974;stroke-linecap:round;stroke-linejoin:round;stroke-miterlimit:4;stroke-opacity:1;stroke-dasharray:none;stroke-dashoffset:0;filter:url(#filter4018)" id="path3185" d="M 75.767526,51.687949 A 16.175068,16.175068 0 0 1 66.097746,70.351926 16.175068,16.175068 0 0 1 46.156517,63.703917" transform="matrix(0.47845643,-0.14209427,0.14209427,0.47845643,33.567354,961.12878)"/><path style="fill:url(#linearGradient3198);fill-opacity:1;stroke:#000;stroke-width:3.29620433;stroke-miterlimit:4;stroke-dasharray:none;stroke-opacity:1" id="path3975" d="m 85.876233,1040.8564 c 2.26425,-1.8687 4.25037,-4.0177 5.80628,-6.4676 8.3051,-13.0768 2.19761,-29.1487 -13.58531,-36.01831 l -4.873583,7.67371 c 10.626833,4.6952 14.726663,15.5564 9.109053,24.4015 -0.77968,1.2277 -1.72599,2.3299 -2.77293,3.3439 l -3.741697,-4.3593 -6.731654,16.5196 20.541881,-0.9033 z"/><path id="path3977" d="m 48.78679,1002.994 c -2.36074,1.7766 -4.458477,3.8442 -6.142374,6.2295 -8.988255,12.7319 -3.737598,29.0304 11.665185,36.5217 l 5.274477,-7.4713 c -10.367208,-5.1138 -13.888027,-16.1269 -7.808321,-24.7388 0.843816,-1.1953 1.847457,-2.2587 2.946927,-3.2299 l 3.507106,4.5038 7.598628,-16.23387 -20.568009,0.0837 z" style="fill:url(#linearGradient3195);fill-opacity:1;stroke:#000;stroke-width:3.29620433;stroke-miterlimit:4;stroke-dasharray:none;stroke-opacity:1"/><path id="path7" d="m 85.876233,1040.8564 c 2.26425,-1.8687 4.25037,-4.0177 5.80628,-6.4676 8.3051,-13.0768 2.19761,-29.1487 -13.58531,-36.01831 l -4.873583,7.67371 c 10.626833,4.6952 14.726663,15.5564 9.109053,24.4015 -0.77968,1.2277 -1.72599,2.3299 -2.77293,3.3439 l -3.741697,-4.3593 -6.731654,16.5196 20.541881,-0.9033 z" style="fill:url(#linearGradient3192);fill-opacity:1"/><path style="fill:url(#linearGradient3189-3);fill-opacity:1" id="path3971" d="m 48.78679,1002.994 c -2.36074,1.7766 -4.458477,3.8442 -6.142374,6.2295 -8.988255,12.7319 -3.737598,29.0304 11.665185,36.5217 l 5.274477,-7.4713 c -10.367208,-5.1138 -13.888027,-16.1269 -7.808321,-24.7388 0.843816,-1.1953 1.847457,-2.2587 2.946927,-3.2299 l 3.507106,4.5038 7.598628,-16.23387 -20.568009,0.0837 z"/></g></svg>